<?xml version="1.0" encoding="utf-8"?>
<!-- Generator: Adobe Illustrator 27.2.0, SVG Export Plug-In . SVG Version: 6.00 Build 0)  -->
<svg version="1.1" id="layer1" xmlns="http://www.w3.org/2000/svg" xmlns:xlink="http://www.w3.org/1999/xlink" x="0px" y="0px"
	 viewBox="0 0 128 128" style="enable-background:new 0 0 128 128;" xml:space="preserve">
<style type="text/css">
	.st0{fill:#36A9E1;stroke:#36A9E1;stroke-width:4;stroke-miterlimit:10;}
	.st1{fill:none;stroke:#36A9E1;stroke-width:4;stroke-linecap:round;stroke-miterlimit:10;}
	.st2{fill:none;stroke:#000000;stroke-width:4;stroke-miterlimit:10;}
	.st3{fill:#36A9E1;stroke:#36A9E1;stroke-width:3;stroke-miterlimit:10;}
	.st4{fill:none;stroke:#36A9E1;stroke-width:3;stroke-linecap:round;stroke-miterlimit:10;}
</style>
<path class="st0" d="M73,65.8c0.1,5.6-4.4,12.4-9.4,12.2c-5-0.2-8.7-6.9-8.6-12.2c0-1.3,0.2-6.2,4.5-8.5c2.8-1.5,6.4-1.4,9.1,0.1
	C72.9,59.7,73,64.7,73,65.8z"/>
<path class="st1" d="M43.7,94.9c0.3-0.6,6.4-12.3,19.6-12.4c8.4,0,16.8,2.8,21,12.4"/>
<path class="st2" d="M56.6,62.8"/>
<circle class="st1" cx="64" cy="80" r="30"/>
<path class="st0" d="M39.2,42.6c0.1,4.5-3.5,9.9-7.6,9.8c-4-0.1-7-5.5-6.9-9.8c0-1,0.1-5,3.6-6.8c2.2-1.2,5.1-1.2,7.3,0.1
	C39.1,37.8,39.2,41.7,39.2,42.6z"/>
<path class="st1" d="M15.8,65.9c0.2-0.5,5.1-9.8,15.7-9.9c2,0,3.9,0.2,5.8,0.6"/>
<path class="st1" d="M28,77.7C16.7,75.8,8,65.9,8,54c0-13.3,10.7-24,24-24c9.6,0,17.8,5.6,21.7,13.7"/>
<path class="st3" d="M89.1,27.4c0,3-2.3,6.6-5,6.5c-2.6-0.1-4.7-3.7-4.6-6.5c0-0.7,0.1-3.3,2.4-4.6c1.5-0.8,3.4-0.8,4.9,0
	C89,24.1,89.1,26.8,89.1,27.4z"/>
<path class="st4" d="M73.5,42.9c0.2-0.3,3.4-6.6,10.4-6.6c4.5,0,9,1.5,11.2,6.6"/>
<circle class="st4" cx="84.3" cy="34.9" r="16"/>
</svg>
