<?xml version="1.0" encoding="utf-8"?>
<!-- Generator: Adobe Illustrator 27.2.0, SVG Export Plug-In . SVG Version: 6.00 Build 0)  -->
<svg version="1.1" id="Слой_1" xmlns="http://www.w3.org/2000/svg" xmlns:xlink="http://www.w3.org/1999/xlink" x="0px" y="0px"
	 viewBox="0 0 64 64" style="enable-background:new 0 0 64 64;" xml:space="preserve">
<style type="text/css">
	.st0{fill:#36A9E1;stroke:#36A9E1;stroke-width:6;stroke-linecap:round;stroke-miterlimit:10;}
	.st1{fill:#F6F6F6;stroke:#FFFFFF;stroke-width:6;stroke-linecap:round;stroke-miterlimit:10;}
</style>
<path class="st0" d="M32,16.9c2.5-4.8,7.4-7.5,12.2-6.8c5.4,0.8,8.1,5.8,8.5,6.6c3,5.8,1,13.8-5.1,20.2C42.4,42.6,37.2,48.3,32,54"
	/>
<path class="st0" d="M32,16.9c-2.5-4.8-7.4-7.5-12.2-6.8c-5.4,0.8-8.1,5.8-8.5,6.6c-3,5.8-1,13.8,5.1,20.2
	C21.6,42.6,26.8,48.3,32,54"/>
<line class="st1" x1="19.6" y1="14.8" x2="29.9" y2="26.3"/>
<line class="st1" x1="15.1" y1="22.2" x2="20.2" y2="28"/>
</svg>
