<?xml version="1.0" encoding="utf-8"?>
<!-- Generator: Adobe Illustrator 27.2.0, SVG Export Plug-In . SVG Version: 6.00 Build 0)  -->
<svg version="1.1" id="Слой_1" xmlns="http://www.w3.org/2000/svg" xmlns:xlink="http://www.w3.org/1999/xlink" x="0px" y="0px"
	 viewBox="0 0 64 64" style="enable-background:new 0 0 64 64;" xml:space="preserve">
<style type="text/css">
	.st0{fill:none;stroke:#020203;stroke-width:6;stroke-miterlimit:10;}
	.st1{fill:none;stroke:#020203;stroke-width:6;stroke-linecap:round;stroke-miterlimit:10;}
	.st2{fill:none;stroke:#020203;stroke-width:6;stroke-linecap:round;stroke-linejoin:round;stroke-miterlimit:10;}
</style>
<path class="st0" d="M43.5,18.8c0.1,7.3-5.8,16-12.6,15.8c-6.6-0.2-11.6-8.9-11.4-15.8c0-1.6,0.2-8,6-11c3.7-1.9,8.5-1.9,12.1,0.1
	C43.4,11,43.5,17.4,43.5,18.8z"/>
<path class="st1" d="M35.7,40.8c9.4,1.1,18.1,5.3,22.7,15.7"/>
<path class="st1" d="M4.5,56.5c0.1-0.1,0.4-0.8,1-1.7"/>
<path class="st2" d="M5.2,44.1C9.8,40,14.4,35.9,19,31.8c0.1,3.3,0.1,6.6,0.2,9.9c4.4,0.7,11.3,2.6,17.8,7.7
	c5.1,4.1,8.9,9.4,8.2,10.2c-0.8,0.9-6.6-4.5-17.4-8c-3.8-1.2-7-1.9-9.2-2.2c-0.1,3.4-0.2,6.7-0.2,10.1C13.9,54.4,9.5,49.2,5.2,44.1z
	"/>
</svg>
